<?xml version="1.0" standalone="no"?>
<!DOCTYPE svg PUBLIC "-//W3C//DTD SVG 20010904//EN"
 "http://www.w3.org/TR/2001/REC-SVG-20010904/DTD/svg10.dtd">
<svg version="1.0" xmlns="http://www.w3.org/2000/svg"
 width="128.000000pt" height="128.000000pt" viewBox="0 0 128.000000 128.000000"
 preserveAspectRatio="xMidYMid meet">

<g transform="translate(0.000000,128.000000) scale(0.100000,-0.100000)"
fill="#000000" stroke="none">
<path d="M531 1270 c-300 -64 -505 -292 -528 -590 -22 -286 172 -565 452 -652
99 -31 271 -31 370 0 195 60 357 220 421 415 24 70 28 99 28 197 0 98 -4 127
-28 197 -84 256 -310 427 -581 438 -49 2 -110 0 -134 -5z m329 -254 c126 -71
191 -113 202 -133 16 -24 18 -56 18 -243 0 -187 -2 -219 -18 -244 -25 -41
-373 -236 -422 -236 -48 0 -397 195 -422 237 -16 24 -18 56 -18 243 0 187 2
219 18 244 25 41 373 236 422 236 26 0 82 -26 220 -104z"/>
<path d="M588 1076 c-178 -96 -322 -183 -338 -203 -19 -24 -20 -41 -20 -233 0
-192 2 -209 20 -233 11 -13 93 -67 182 -118 214 -122 202 -122 408 -5 85 49
167 101 183 117 l27 29 0 209 c0 193 -1 210 -20 234 -27 34 -336 208 -380 214
-20 2 -47 -2 -62 -11z m80 -144 c28 -15 45 -43 118 -197 132 -278 139 -295
127 -314 -5 -9 -25 -24 -42 -35 -38 -22 -74 -11 -92 28 -13 28 -26 32 -131 42
l-77 7 -11 -29 c-25 -70 -43 -82 -100 -65 -68 20 -67 27 27 301 46 134 91 252
100 262 20 23 39 23 81 0z"/>
<path d="M594 918 c-20 -25 -176 -497 -169 -508 13 -20 68 -39 87 -29 9 5 22
26 28 46 7 21 16 41 19 46 4 4 54 2 110 -4 102 -12 104 -13 123 -46 13 -21 28
-33 42 -33 29 0 66 27 66 49 0 22 -202 448 -222 467 -20 21 -72 28 -84 12z
m87 -259 l31 -62 -48 7 c-26 3 -49 8 -52 10 -5 5 27 106 34 106 2 0 18 -28 35
-61z"/>
<path d="M636 658 c-9 -35 -8 -38 19 -38 25 0 25 0 10 30 -19 36 -21 37 -29 8z"/>
</g>
</svg>
